<?xml version="1.0" encoding="UTF-8" standalone="no"?> <svg id="Layer_1" data-name="Layer 1" xmlns="http://www.w3.org/2000/svg" xmlns:xlink="http://www.w3.org/1999/xlink" viewBox="0 0 48 48"><defs><style>.cls-1{fill:url(#linear-gradient);}.cls-2{fill:url(#linear-gradient-2);}.cls-3{fill:url(#linear-gradient-3);}.cls-4{fill:url(#linear-gradient-4);}.cls-5{fill:url(#linear-gradient-5);}.cls-6,.cls-9{opacity:0.25;}.cls-6{fill:url(#linear-gradient-6);}.cls-7{fill:url(#linear-gradient-7);}.cls-8{fill:url(#linear-gradient-8);}.cls-9{fill:url(#linear-gradient-9);}.cls-10{fill:url(#linear-gradient-10);}.cls-11{fill:url(#linear-gradient-11);}</style><linearGradient id="linear-gradient" x1="15.368" y1="14.026" x2="35.189" y2="21.633" gradientUnits="userSpaceOnUse"><stop offset="0" stop-color="#fff"/><stop offset="1" stop-color="#edf2f0"/></linearGradient><linearGradient id="linear-gradient-2" x1="3.062" y1="15.657" x2="46.776" y2="36.068" gradientUnits="userSpaceOnUse"><stop offset="0" stop-color="#34ca82"/><stop offset="1" stop-color="#37a477"/></linearGradient><linearGradient id="linear-gradient-3" x1="5.827" y1="19.839" x2="5.827" y2="22.841" gradientUnits="userSpaceOnUse"><stop offset="0" stop-color="#fed200"/><stop offset="1" stop-color="#f59815"/></linearGradient><linearGradient id="linear-gradient-4" x1="21.91" y1="23.013" x2="21.91" y2="24.903" gradientUnits="userSpaceOnUse"><stop offset="0" stop-color="#37aa79"/><stop offset="1" stop-color="#398a70"/></linearGradient><linearGradient id="linear-gradient-5" x1="10.218" y1="30.05" x2="15.068" y2="34.9" xlink:href="#linear-gradient"/><linearGradient id="linear-gradient-6" x1="11.852" y1="31.683" x2="13.118" y2="32.949" gradientUnits="userSpaceOnUse"><stop offset="0" stop-color="#3e4154"/><stop offset="1" stop-color="#1b2129"/></linearGradient><linearGradient id="linear-gradient-7" x1="7.942" y1="27.773" x2="16.587" y2="36.418" xlink:href="#linear-gradient-6"/><linearGradient id="linear-gradient-8" x1="33.143" y1="29.974" x2="37.7" y2="34.531" xlink:href="#linear-gradient"/><linearGradient id="linear-gradient-9" x1="34.78" y1="31.611" x2="36.348" y2="33.179" xlink:href="#linear-gradient-6"/><linearGradient id="linear-gradient-10" x1="31.134" y1="27.965" x2="39.882" y2="36.713" xlink:href="#linear-gradient-6"/><linearGradient id="linear-gradient-11" x1="35.858" y1="19.664" x2="44.001" y2="26.307" xlink:href="#linear-gradient-3"/></defs><title>Electric Car</title><path class="cls-1" d="M37.652,20.874l-.471-1.447L35.56,15.244a4.3,4.3,0,0,0-4.03-2.7H19.96a4.32,4.32,0,0,0-3.849,2.3l-2.825,5.465a1.044,1.044,0,0,1-.929.565Z"/><path class="cls-2" d="M47.948,29.692,46.9,24.11a5.058,5.058,0,0,0-.517-1.462c-.2-.419-1.379-2.775-3.395-2.775H38.4l-.271-.776-.011-.031-1.622-4.184a5.329,5.329,0,0,0-4.962-3.341H19.96a5.293,5.293,0,0,0-4.737,2.844L12.4,19.851a.044.044,0,0,1-.04.023H7.4a5.318,5.318,0,0,0-4.981,3.391L.2,29.186a3,3,0,0,0,.349,2.793,3.17,3.17,0,0,0,2.61,1.354H44.847A3.17,3.17,0,0,0,47.3,32.194,3.034,3.034,0,0,0,47.948,29.692ZM34.627,15.605l1.616,4.168.035.1H27.092V13.541H31.53A3.314,3.314,0,0,1,34.627,15.605ZM17,15.3a3.3,3.3,0,0,1,2.961-1.762h5.132v6.332H14.637Z"/><path class="cls-3" d="M5,22a4,4,0,0,0,3.533-2.125H7.4A5.37,5.37,0,0,0,3.119,22Z"/><path class="cls-4" d="M22.956,25.041H20.865a1,1,0,0,1,0-2h2.091a1,1,0,0,1,0,2Z"/><ellipse class="cls-5" cx="12.502" cy="32.333" rx="4.182" ry="4.167"/><circle class="cls-6" cx="12.502" cy="32.333" r="1"/><path class="cls-7" d="M12.5,37.5a5.167,5.167,0,1,1,5.182-5.167A5.18,5.18,0,0,1,12.5,37.5Zm0-8.333a3.167,3.167,0,1,0,3.182,3.166A3.177,3.177,0,0,0,12.5,29.167Z"/><ellipse class="cls-8" cx="35.502" cy="32.333" rx="4.182" ry="4.167"/><circle class="cls-9" cx="35.502" cy="32.333" r="1"/><path class="cls-10" d="M35.5,37.5a5.167,5.167,0,1,1,5.182-5.167A5.18,5.18,0,0,1,35.5,37.5Zm0-8.333a3.167,3.167,0,1,0,3.182,3.166A3.177,3.177,0,0,0,35.5,29.167Z"/><path class="cls-11" d="M47.893,20.6a1,1,0,0,0-.893-.55H43.125l.549-8.484a1,1,0,0,0-1.82-.635L32.588,24.3a1,1,0,0,0,.821,1.57h3.805l-1.089,8.42a1,1,0,0,0,1.8.723L47.8,21.644A1,1,0,0,0,47.893,20.6Z"/></svg>