<?xml version="1.0" standalone="no"?><svg xmlns="http://www.w3.org/2000/svg" viewBox="0 0 1440 320"><path fill="#273036" fill-opacity="1" d="M0,96L10.9,128C21.8,160,44,224,65,224C87.3,224,109,160,131,117.3C152.7,75,175,53,196,80C218.2,107,240,181,262,213.3C283.6,245,305,235,327,240C349.1,245,371,267,393,240C414.5,213,436,139,458,122.7C480,107,502,149,524,144C545.5,139,567,85,589,101.3C610.9,117,633,203,655,245.3C676.4,288,698,288,720,266.7C741.8,245,764,203,785,186.7C807.3,171,829,181,851,165.3C872.7,149,895,107,916,74.7C938.2,43,960,21,982,53.3C1003.6,85,1025,171,1047,186.7C1069.1,203,1091,149,1113,122.7C1134.5,96,1156,96,1178,101.3C1200,107,1222,117,1244,128C1265.5,139,1287,149,1309,154.7C1330.9,160,1353,160,1375,165.3C1396.4,171,1418,181,1429,186.7L1440,192L1440,0L1429.1,0C1418.2,0,1396,0,1375,0C1352.7,0,1331,0,1309,0C1287.3,0,1265,0,1244,0C1221.8,0,1200,0,1178,0C1156.4,0,1135,0,1113,0C1090.9,0,1069,0,1047,0C1025.5,0,1004,0,982,0C960,0,938,0,916,0C894.5,0,873,0,851,0C829.1,0,807,0,785,0C763.6,0,742,0,720,0C698.2,0,676,0,655,0C632.7,0,611,0,589,0C567.3,0,545,0,524,0C501.8,0,480,0,458,0C436.4,0,415,0,393,0C370.9,0,349,0,327,0C305.5,0,284,0,262,0C240,0,218,0,196,0C174.5,0,153,0,131,0C109.1,0,87,0,65,0C43.6,0,22,0,11,0L0,0Z"></path></svg>