<?xml version="1.0" standalone="no"?><svg xmlns="http://www.w3.org/2000/svg" viewBox="0 0 1440 320"><path fill="#0099ff" fill-opacity="1" d="M0,64L15,85.3C30,107,60,149,90,181.3C120,213,150,235,180,229.3C210,224,240,192,270,192C300,192,330,224,360,245.3C390,267,420,277,450,261.3C480,245,510,203,540,170.7C570,139,600,117,630,112C660,107,690,117,720,149.3C750,181,780,235,810,234.7C840,235,870,181,900,154.7C930,128,960,128,990,106.7C1020,85,1050,43,1080,53.3C1110,64,1140,128,1170,149.3C1200,171,1230,149,1260,170.7C1290,192,1320,256,1350,282.7C1380,309,1410,299,1425,293.3L1440,288L1440,0L1425,0C1410,0,1380,0,1350,0C1320,0,1290,0,1260,0C1230,0,1200,0,1170,0C1140,0,1110,0,1080,0C1050,0,1020,0,990,0C960,0,930,0,900,0C870,0,840,0,810,0C780,0,750,0,720,0C690,0,660,0,630,0C600,0,570,0,540,0C510,0,480,0,450,0C420,0,390,0,360,0C330,0,300,0,270,0C240,0,210,0,180,0C150,0,120,0,90,0C60,0,30,0,15,0L0,0Z"></path></svg>